HIERARCHY
ROOT Hips
{
  OFFSET 0 0 0
  CHANNELS 6 Xposition Yposition Zposition Zrotation Xrotation Yrotation
  JOINT Spine
  {
    OFFSET 0 10.1816 0.1315
    CHANNELS 3 Zrotation Xrotation Yrotation
    JOINT Spine1
    {
      OFFSET 0 10.0835 -1.0008
      CHANNELS 3 Zrotation Xrotation Yrotation
      JOINT Spine2
      {
        OFFSET 0 9.1 -1.3734
        CHANNELS 3 Zrotation Xrotation Yrotation
        JOINT Neck
        {
          OFFSET 0 16.6717 -2.5162
          CHANNELS 3 Zrotation Xrotation Yrotation
          JOINT Head
          {
            OFFSET 0 9.6179 1.685
            CHANNELS 3 Zrotation Xrotation Yrotation
            End Site
            {
              OFFSET 0 17.8152 2.585
            }
          }
        }
        JOINT LeftShoulder
        {
          OFFSET 4.5704 10.946 -2.628
          CHANNELS 3 Zrotation Xrotation Yrotation
          JOINT LeftArm
          {
            OFFSET 10.5924 -0.5246 -2.2321
            CHANNELS 3 Zrotation Xrotation Yrotation
            JOINT LeftForeArm
            {
              OFFSET 27.8415 -0.0001 0
              CHANNELS 3 Zrotation Xrotation Yrotation
              JOINT LeftHand
              {
                OFFSET 28.3288 0 0
                CHANNELS 3 Zrotation Xrotation Yrotation
                End Site
                {
                  OFFSET 0 0 0
                }
              }
            }
          }
        }
        JOINT RightShoulder
        {
          OFFSET -4.57 10.9462 -2.628
          CHANNELS 3 Zrotation Xrotation Yrotation
          JOINT RightArm
          {
            OFFSET -10.5928 -0.5248 -2.2321
            CHANNELS 3 Zrotation Xrotation Yrotation
            JOINT RightForeArm
            {
              OFFSET -27.8415 0 0
              CHANNELS 3 Zrotation Xrotation Yrotation
              JOINT RightHand
              {
                OFFSET -28.3288 0 0.0001
                CHANNELS 3 Zrotation Xrotation Yrotation
                End Site
                {
                  OFFSET 0 0 0
                }
              }
            }
          }
        }
      }
    }
  }
  JOINT LeftUpLeg
  {
    OFFSET 8.2078 -6.7517 -1.5996
    CHANNELS 3 Zrotation Xrotation Yrotation
    JOINT LeftLeg
    {
      OFFSET 0 -44.3705 0.2846
      CHANNELS 3 Zrotation Xrotation Yrotation
      JOINT LeftFoot
      {
        OFFSET 0 -44.4279 -2.9822
        CHANNELS 3 Zrotation Xrotation Yrotation
        JOINT LeftToeBase
        {
          OFFSET 0 -8.7287 10.7106
          CHANNELS 3 Zrotation Xrotation Yrotation
          End Site
          {
            OFFSET 0 -0.0007 9.2781
          }
        }
      }
    }
  }
  JOINT RightUpLeg
  {
    OFFSET -8.2078 -6.7517 -1.5996
    CHANNELS 3 Zrotation Xrotation Yrotation
    JOINT RightLeg
    {
      OFFSET 0 -44.3705 0.2862
      CHANNELS 3 Zrotation Xrotation Yrotation
      JOINT RightFoot
      {
        OFFSET 0 -44.4277 -2.9838
        CHANNELS 3 Zrotation Xrotation Yrotation
        JOINT RightToeBase
        {
          OFFSET 0 -8.7287 10.7106
          CHANNELS 3 Zrotation Xrotation Yrotation
          End Site
          {
            OFFSET 0 -0.0007 9.2781
          }
        }
      }
    }
  }
}
MOTION
Frames:	6
Frame Time:	0.0333333
-1.06218 88.2488 0.621543 0.0522246 -5.45314 -46.3231 -1.95697 9.24296 7.55272 -0.916152 2.17162 1.02474 -0.894674 2.18723 1.01705 4.40353 1.12302 13.1997 -3.89261 7.47612 20.6703 -8.61708 0.572556 3.67365 -67.9227 -32.7083 -45.2099 -0.000184958 -1.28924e-05 -106.358 -15.7588 4.04097 -6.87555 -5.23542 1.81436 13.2489 64.7892 12.3416 53.0667 1.34881e-05 1.26085e-05 105.988 8.39649 -5.59457 18.5713 18.4135 -27.9211 17.8669 8.07762 58.2063 -13.188 -14.4914 -21.577 -13.9736 1.99873e-06 -1.59404 -7.22612e-06 -28.3979 -17.7174 -21.5917 -14.3751 57.9414 2.41693 22.3158 -24.8467 3.83545 1.02501e-06 -0.0130051 1.76641e-05 
-0.976207 88.3575 0.595348 -0.076845 -5.60145 -46.6663 -1.92672 9.28998 7.54719 -0.935515 2.17575 1.02387 -0.912459 2.19152 1.01628 4.38193 1.117 13.1983 -4.02777 7.71986 20.7262 -8.54121 0.557983 3.73325 -67.9883 -32.5217 -45.1808 -0.000289306 4.27428e-06 -106.267 -15.7072 4.05022 -6.98776 -5.27441 1.81412 13.3015 64.8237 12.2301 53.1022 1.87828e-05 -2.51563e-05 105.949 8.56618 -5.54507 18.5363 18.2114 -27.575 17.7921 8.18906 57.9549 -13.0706 -14.5889 -21.5117 -13.8572 -1.56484e-06 -1.96113 -2.47176e-06 -28.3757 -17.6609 -21.5331 -14.4892 57.6815 2.72065 22.1531 -24.6718 3.79259 1.15057e-06 -0.0129946 -6.73508e-06 
-0.852491 88.5015 0.575499 -0.200296 -5.76309 -47.0765 -1.82771 9.33011 7.53066 -0.974408 2.20633 1.02233 -0.952474 2.22261 1.01839 4.32106 1.15038 13.2168 -4.14283 7.99599 20.7891 -8.51181 0.553328 3.75273 -68.0304 -32.4016 -45.152 -0.000182502 4.24942e-06 -106.17 -15.6788 3.99459 -7.03698 -5.37799 1.80108 13.3762 64.8739 12.073 53.1719 4.51949e-05 4.17199e-06 105.868 8.89254 -5.52792 18.6062 17.9933 -27.2269 17.7185 8.26724 57.6504 -13.1513 -14.6601 -21.3526 -13.5876 6.11045e-07 -2.53666 1.4581e-07 -28.4364 -17.5993 -21.5555 -14.5185 57.3384 3.09987 21.8882 -24.4461 3.71736 -5.10952e-06 -0.012996 -2.16167e-05 
-0.652577 88.6709 0.557423 -0.228135 -5.95866 -47.5838 -1.74221 9.35967 7.51454 -1.02664 2.24572 1.0256 -1.00418 2.26243 1.02113 4.21175 1.21034 13.2647 -4.20635 8.36586 20.8398 -8.63276 0.564715 3.73588 -67.97 -32.3545 -45.2136 -0.000214219 -4.22258e-06 -106.065 -15.6912 3.95986 -7.0911 -5.56181 1.77495 13.4461 64.9154 11.8598 53.2983 1.63978e-05 -8.25981e-06 105.703 9.3329 -5.51387 18.7294 17.7577 -26.9102 17.685 8.1615 57.379 -13.3729 -14.755 -21.0528 -13.2933 3.74311e-06 -3.73241 -1.39715e-05 -28.6866 -17.6469 -21.7458 -14.6122 56.9247 3.74179 21.5282 -24.1469 3.60453 4.23016e-06 -0.0129987 1.99326e-05 
-0.319898 88.8071 0.519747 -0.090175 -6.2521 -48.2246 -1.75563 9.50662 7.49722 -1.07487 2.21944 1.02693 -1.05296 2.23649 1.02261 4.04154 1.28116 13.335 -4.19594 8.84518 20.8429 -8.87231 0.592874 3.66606 -67.835 -32.3741 -45.3403 -0.000213033 4.20088e-06 -105.98 -15.7046 3.99128 -7.22341 -5.82676 1.73705 13.5485 64.8662 11.5205 53.4686 -2.99663e-05 -4.06448e-06 105.448 9.72383 -5.45787 18.8153 17.5137 -26.7674 17.7677 7.75633 57.3532 -13.7882 -14.9323 -20.5447 -12.8513 -3.53323e-06 -5.828 -1.49228e-07 -29.2256 -17.9678 -22.1183 -15.0333 56.5644 4.86303 21.1545 -23.7815 3.47863 6.18611e-06 -0.0129885 1.34728e-05 
0.203767 88.7919 0.460862 0.199877 -6.75551 -48.9825 -1.89504 9.98626 7.42818 -1.09599 2.05038 1.01107 -1.07675 2.06727 1.00936 3.78021 1.4047 13.405 -4.11164 9.2895 20.7489 -9.10907 0.649891 3.42651 -67.7046 -32.5283 -45.358 -0.000286368 2.52439e-05 -106.006 -15.6733 3.80785 -7.32212 -6.15513 1.69391 13.7962 64.6431 10.8949 53.565 7.73654e-05 -8.01544e-06 105.227 9.96591 -5.43572 18.8414 17.1653 -26.8917 17.8896 7.27365 57.9064 -14.4031 -15.4565 -19.8352 -12.8004 6.33027e-07 -7.9693 2.42378e-05 -30.1786 -18.6476 -22.5719 -15.8951 56.518 6.50319 20.8881 -23.4246 3.39532 -3.9368e-06 -0.0129712 -1.70981e-05 
